<svg xmlns="http://www.w3.org/2000/svg" viewBox="0 0 45 45" id="Wood-Material-1--Streamline-Ultimate.svg" height="45" width="45"><desc>Wood Material 1 Streamline Icon: https://streamlinehq.com</desc><g><path d="M10.59375 15.76875A55.9875 55.9875 0 0 1 18.75 14.043750000000001c6.525 -0.7125 12.993749999999999 0.8999999999999999 19.2375 2.4562500000000003 2.26875 0.5625 4.59375 1.14375 6.9 1.59375V9.80625a2.8125 2.8125 0 0 0 -2.8125 -2.8125H3.28125a2.8125 2.8125 0 0 0 -2.8125 2.8125v7.762499999999999a41.1 41.1 0 0 0 10.125 -1.7999999999999998Zm5.324999999999999 -3.99375 -3.0375 0a0.9375 0.9375 0 0 1 0 -1.875l3.1875 0a0.9375 0.9375 0 0 1 0.80625 0.95625 0.8625 0.8625 0 0 1 -0.95625 0.91875Z" fill="#000000" stroke-width="1"></path><path d="M29.756249999999998 29.493750000000002c-5.30625 1.1625 -12.6 2.4562500000000003 -17.3625 1.875a55.9875 55.9875 0 0 1 -8.175 -1.725l-3.75 -0.9375v6.43125a2.8125 2.8125 0 0 0 2.8125 2.8125h38.8125a2.8125 2.8125 0 0 0 2.8125 -2.8125V31.125000000000004a23.8125 23.8125 0 0 0 -15.15 -1.63125Zm-2.5500000000000003 3.9187499999999997a41.90625 41.90625 0 0 0 9.1125 -0.8625 0.9375 0.9375 0 0 1 0.39375 1.875 44.3625 44.3625 0 0 1 -9.506250000000001 0.8999999999999999 0.9375 0.9375 0 1 1 0 -1.875Z" fill="#000000" stroke-width="1"></path><path d="M4.6875 27.881249999999998a54.525 54.525 0 0 0 7.9125 1.6875c4.5 0.48750000000000004 11.587499999999999 -0.7687499999999999 16.74375 -1.875a25.59375 25.59375 0 0 1 15.562500000000002 1.44375v-9.13125c-2.475 -0.48750000000000004 -4.95 -1.0875 -7.35 -1.6875 -6.09375 -1.51875 -12.375 -3.09375 -18.58125 -2.41875a51.9 51.9 0 0 0 -7.89375 1.6875 43.55625 43.55625 0 0 1 -10.6125 1.875v7.5c1.40625 0.20625 2.85 0.5625 4.21875 0.91875Zm28.368750000000002 -6.05625c1.3875 0.16874999999999998 2.85 0.4125 4.4437500000000005 0.7312500000000001a0.9375 0.9375 0 0 1 0.75 1.10625 0.95625 0.95625 0 0 1 -0.91875 0.75h-0.1875c-1.55625 -0.31875000000000003 -2.9625000000000004 -0.54375 -4.3125 -0.7125a0.9375 0.9375 0 0 1 0.22499999999999998 -1.875Zm-8.85 -3.225c1.66875 0 3 0.9375 3 2.1s-1.3312499999999998 2.1 -3 2.1 -3 -0.9375 -3 -2.1 1.29375 -2.1 3 -2.1ZM7.5 23.5875c1.14375 -0.33749999999999997 2.1937499999999996 -0.6 3.20625 -0.80625a31.987499999999997 31.987499999999997 0 0 1 4.95 -0.54375 0.9375 0.9375 0 0 1 0.9750000000000001 0.8999999999999999 0.95625 0.95625 0 0 1 -0.8999999999999999 0.9750000000000001 30.674999999999997 30.674999999999997 0 0 0 -4.66875 0.5062500000000001c-0.95625 0.1875 -1.875 0.44999999999999996 -3.0375 0.7687499999999999a0.6375000000000001 0.6375000000000001 0 0 1 -0.2625 0 0.91875 0.91875 0 0 1 -0.8999999999999999 -0.6749999999999999 0.9375 0.9375 0 0 1 0.6375000000000001 -1.125Z" fill="#000000" stroke-width="1"></path></g></svg>