<svg xmlns="http://www.w3.org/2000/svg" viewBox="0 0 45 45" id="Equipment-Cement-Cart--Streamline-Ultimate.svg" height="45" width="45"><desc>Equipment Cement Cart Streamline Icon: https://streamlinehq.com</desc><g><path d="M6.09375 37.5a4.21875 4.21875 0 1 0 8.4375 0 4.21875 4.21875 0 1 0 -8.4375 0" fill="#000000" stroke-width="1"></path><path d="M44.456250000000004 10.81875a1.875 1.875 0 0 0 -2.6624999999999996 0L35.775 16.875H1.5a1.44375 1.44375 0 0 0 -1.3499999999999999 0.7312500000000001 1.4625000000000001 1.4625000000000001 0 0 0 0.13125 1.5l7.59375 11.4375a0.46875 0.46875 0 0 0 0.525 0.1875 7.14375 7.14375 0 0 1 1.875 -0.2625 7.03125 7.03125 0 0 1 6.675 4.81875 0.46875 0.46875 0 0 0 0.48750000000000004 0.33749999999999997h2.8125a3.525 3.525 0 0 0 2.25 -0.95625l2.5875 -2.68125a0.46875 0.46875 0 0 1 0.6375000000000001 0L33.75 38.75625a3.20625 3.20625 0 0 0 1.875 0.61875 3.75 3.75 0 0 0 3.75 -3.75V18.58125l5.08125 -5.11875a1.875 1.875 0 0 0 0 -2.64375Zm-16.05 18.487499999999997a0.43125 0.43125 0 0 1 -0.16874999999999998 -0.33749999999999997 0.48750000000000004 0.48750000000000004 0 0 1 0.13125 -0.35625l6.45 -6.675a0.46875 0.46875 0 0 1 0.5062500000000001 -0.11249999999999999 0.46875 0.46875 0 0 1 0.3 0.43125v12.24375a0.46875 0.46875 0 0 1 -0.2625 0.43125 0.48750000000000004 0.48750000000000004 0 0 1 -0.5062500000000001 0Z" fill="#000000" stroke-width="1"></path><path d="M5.49375 13.59375h27.6a1.40625 1.40625 0 0 0 1.2375 -2.0812500000000003 6.0375000000000005 6.0375000000000005 0 0 0 -5.3812500000000005 -3.20625 6.3 6.3 0 0 0 -1.3312499999999998 0.15 9.05625 9.05625 0 0 0 -8.306249999999999 -5.175 9.05625 9.05625 0 0 0 -8.325000000000001 5.175 6.3 6.3 0 0 0 -1.3312499999999998 -0.15 6.0375000000000005 6.0375000000000005 0 0 0 -5.3999999999999995 3.20625 1.36875 1.36875 0 0 0 0 1.3875 1.3875 1.3875 0 0 0 1.2375 0.69375Z" fill="#000000" stroke-width="1"></path></g></svg>