<svg xmlns="http://www.w3.org/2000/svg" viewBox="0 0 45 45" id="Equipment-Cement--Streamline-Ultimate.svg" height="45" width="45"><desc>Equipment Cement Streamline Icon: https://streamlinehq.com</desc><g><path d="M6.28125 15.9375h32.4375a0.9375 0.9375 0 0 0 0.9375 -0.9375 7.1625 7.1625 0 0 0 -7.14375 -7.10625 0.48750000000000004 0.48750000000000004 0 0 1 -0.44999999999999996 -0.39375A10.200000000000001 10.200000000000001 0 0 0 12.9375 7.5a0.48750000000000004 0.48750000000000004 0 0 1 -0.44999999999999996 0.31875000000000003A7.1625 7.1625 0 0 0 5.34375 15a0.9375 0.9375 0 0 0 0.9375 0.9375Z" fill="#000000" stroke-width="1"></path><path d="M9.375 40.3125a3.75 3.75 0 1 0 7.5 0 3.75 3.75 0 1 0 -7.5 0" fill="#000000" stroke-width="1"></path><path d="M44.56875 19.424999999999997A1.875 1.875 0 0 0 43.125 18.75H1.875a1.875 1.875 0 0 0 -1.875 2.2312499999999997l2.8125 14.75625a5.625 5.625 0 0 0 2.4937500000000004 3.75 0.9375 0.9375 0 0 0 0.8625 0 0.88125 0.88125 0 0 0 0.54375 -0.65625 6.54375 6.54375 0 0 1 12.88125 0.6749999999999999 0.95625 0.95625 0 0 0 0.9375 0.825H24.375a0.95625 0.95625 0 0 0 0.9375 -0.825 6.54375 6.54375 0 0 1 12.88125 -0.65625 0.9375 0.9375 0 0 0 1.40625 0.58125 5.625 5.625 0 0 0 2.4937500000000004 -3.75L45 20.98125a1.875 1.875 0 0 0 -0.43125 -1.55625Z" fill="#000000" stroke-width="1"></path><path d="M28.125 40.3125a3.75 3.75 0 1 0 7.5 0 3.75 3.75 0 1 0 -7.5 0" fill="#000000" stroke-width="1"></path></g></svg>