<svg xmlns="http://www.w3.org/2000/svg" viewBox="0 0 45 45" id="Hardware-Hammer-Nail--Streamline-Ultimate.svg" height="45" width="45"><desc>Hardware Hammer Nail Streamline Icon: https://streamlinehq.com</desc><g><path d="M43.125 31.875h-7.5a1.875 1.875 0 0 0 0 3.75h0.84375a0.48750000000000004 0.48750000000000004 0 0 1 0.46875 0.39375l1.3312499999999998 8.0625a1.10625 1.10625 0 0 0 2.1937499999999996 0l1.3312499999999998 -8.0625a0.48750000000000004 0.48750000000000004 0 0 1 0.46875 -0.39375H43.125a1.875 1.875 0 0 0 0 -3.75Z" fill="#000000" stroke-width="1"></path><path d="M9.9 17.099999999999998A0.99375 0.99375 0 0 0 9.225 16.875a0.95625 0.95625 0 0 0 -0.65625 0.28125L0.28125 25.3875a0.9375 0.9375 0 0 0 -0.2625 0.65625v10.59375a0.91875 0.91875 0 0 0 0.58125 0.8625 0.7687499999999999 0.7687499999999999 0 0 0 0.35625 0 0.9750000000000001 0.9750000000000001 0 0 0 0.65625 -0.2625l13.575000000000001 -13.51875a0.8999999999999999 0.8999999999999999 0 0 0 0 -1.3125Z" fill="#000000" stroke-width="1"></path><path d="M35.7375 19.0875a2.8125 2.8125 0 0 0 0 -3.975L33.75 13.125a1.875 1.875 0 0 0 -2.6624999999999996 0 1.875 1.875 0 0 1 -2.64375 0A1.875 1.875 0 0 1 28.125 11.118749999999999a2.85 2.85 0 0 0 -0.6375000000000001 -3.0187500000000003c-2.68125 -2.6999999999999997 -3.75 -3.75 -4.29375 -4.21875a14.53125 14.53125 0 0 0 -18.75 -0.84375A1.875 1.875 0 0 0 3.75 5.175a1.875 1.875 0 0 0 1.875 1.25625 9.375 9.375 0 0 1 6.91875 2.71875 6.58125 6.58125 0 0 1 1.3499999999999999 1.7625 0.80625 0.80625 0 0 1 -0.16874999999999998 1.03125l-1.875 1.875a0.91875 0.91875 0 0 0 -0.28125 0.6749999999999999 0.88125 0.88125 0 0 0 0.28125 0.65625l5.2875 5.30625a0.95625 0.95625 0 0 0 1.3312499999999998 0l1.9875 -1.9875a1.875 1.875 0 0 1 2.64375 0 1.875 1.875 0 0 1 0 2.64375 1.875 1.875 0 0 0 0 2.64375l1.9875 1.9875a2.75625 2.75625 0 0 0 1.9875 0.825 2.7375 2.7375 0 0 0 1.9875 -0.825Z" fill="#000000" stroke-width="1"></path></g></svg>