<svg xmlns="http://www.w3.org/2000/svg" viewBox="0 0 45 45" id="Power-Tools-Wood-Cutter-1--Streamline-Ultimate.svg" height="45" width="45"><desc>Power Tools Wood Cutter 1 Streamline Icon: https://streamlinehq.com</desc><g><path d="M4.14375 7.05h2.175a1.05 1.05 0 0 1 1.0125000000000002 0.75 6 6 0 0 0 1.0125000000000002 2.0250000000000004 0.24375000000000002 0.24375000000000002 0 0 1 0 0.22499999999999998 6.69375 6.69375 0 0 0 0.54375 8.00625 2.325 2.325 0 0 0 1.6875 0.95625 2.26875 2.26875 0 0 0 1.875 -0.6749999999999999l1.65 -1.70625a1.05 1.05 0 0 1 1.2 -0.20625 21.5625 21.5625 0 0 0 2.26875 0.8625 1.0875 1.0875 0 0 1 0.69375 0.7312500000000001c1.2 4.575 6.675 5.00625 6.862500000000001 5.00625a2.25 2.25 0 0 0 1.4812500000000002 -0.54375 2.2875 2.2875 0 0 0 0.80625 -1.7437500000000001V18.5625a1.05 1.05 0 0 1 0.75 -1.0125000000000002 5.625 5.625 0 0 0 1.9875 -0.99375 0.28125 0.28125 0 0 1 0.3 0 6.731249999999999 6.731249999999999 0 0 0 7.96875 -0.5625 2.26875 2.26875 0 0 0 0.95625 -1.6875 2.25 2.25 0 0 0 -0.6749999999999999 -1.875l-1.6875 -1.65a1.0687499999999999 1.0687499999999999 0 0 1 -0.22499999999999998 -1.2 18.09375 18.09375 0 0 0 0.8625 -2.26875 1.0875 1.0875 0 0 1 0.7312500000000001 -0.69375A6.7875000000000005 6.7875000000000005 0 0 0 43.125 1.3125a1.03125 1.03125 0 0 0 -0.1875 -0.8999999999999999 1.0125000000000002 1.0125000000000002 0 0 0 -0.88125 -0.4125H4.2a1.05 1.05 0 0 0 -0.88125 0.46875A10.1625 10.1625 0 0 0 1.875 4.40625a2.325 2.325 0 0 0 0.525 1.875 2.2875 2.2875 0 0 0 1.7437500000000001 0.7687499999999999Zm12.4875 -3.525a1.0875 1.0875 0 0 1 0.825 -0.39375h10.2375a1.0875 1.0875 0 0 1 0.825 0.39375 1.05 1.05 0 0 1 0.20625 0.88125A6.24375 6.24375 0 0 1 22.5 9.375a6.28125 6.28125 0 0 1 -6.075 -4.96875 1.125 1.125 0 0 1 0.20625 -0.88125Z" fill="#000000" stroke-width="1"></path><path d="M37.5 30H7.5a7.5 7.5 0 0 0 0 15h30a7.5 7.5 0 0 0 0 -15ZM7.5 42.1875A4.6875 4.6875 0 1 1 12.1875 37.5 4.6875 4.6875 0 0 1 7.5 42.1875Zm12.1875 -6.5625H16.875a0.9375 0.9375 0 0 1 0 -1.875h2.8125a0.9375 0.9375 0 0 1 0 1.875Zm8.4375 5.625h-2.8125a0.9375 0.9375 0 0 1 0 -1.875H28.125a0.9375 0.9375 0 0 1 0 1.875Zm7.5 -5.625h-2.8125a0.9375 0.9375 0 0 1 0 -1.875H35.625a0.9375 0.9375 0 0 1 0 1.875Z" fill="#000000" stroke-width="1"></path></g></svg>