<svg xmlns="http://www.w3.org/2000/svg" viewBox="0 0 50 50" id="Power-Tools-Wood-Cutter-1--Streamline-Ultimate.svg" height="50" width="50"><desc>Power Tools Wood Cutter 1 Streamline Icon: https://streamlinehq.com</desc><g><path d="M4.604166666666667 7.833333333333333h2.4166666666666665a1.166666666666667 1.166666666666667 0 0 1 1.1250000000000002 0.8333333333333335 6.666666666666668 6.666666666666668 0 0 0 1.1250000000000002 2.2500000000000004 0.27083333333333337 0.27083333333333337 0 0 1 0 0.25 7.4375 7.4375 0 0 0 0.6041666666666666 8.895833333333334 2.5833333333333335 2.5833333333333335 0 0 0 1.8750000000000002 1.0625 2.5208333333333335 2.5208333333333335 0 0 0 2.0833333333333335 -0.75l1.8333333333333335 -1.8958333333333335a1.166666666666667 1.166666666666667 0 0 1 1.3333333333333335 -0.22916666666666669 23.958333333333336 23.958333333333336 0 0 0 2.5208333333333335 0.9583333333333335 1.2083333333333333 1.2083333333333333 0 0 1 0.7708333333333334 0.8125000000000001c1.3333333333333335 5.083333333333334 7.416666666666667 5.5625 7.625000000000001 5.5625a2.5 2.5 0 0 0 1.6458333333333335 -0.6041666666666666 2.541666666666667 2.541666666666667 0 0 0 0.8958333333333334 -1.9375000000000002V20.625000000000004a1.166666666666667 1.166666666666667 0 0 1 0.8333333333333335 -1.1250000000000002 6.25 6.25 0 0 0 2.2083333333333335 -1.1041666666666667 0.3125 0.3125 0 0 1 0.33333333333333337 0 7.479166666666667 7.479166666666667 0 0 0 8.854166666666668 -0.625 2.5208333333333335 2.5208333333333335 0 0 0 1.0625 -1.8750000000000002 2.5 2.5 0 0 0 -0.75 -2.0833333333333335l-1.8750000000000002 -1.8333333333333335a1.1875 1.1875 0 0 1 -0.25 -1.3333333333333335 20.104166666666668 20.104166666666668 0 0 0 0.9583333333333335 -2.5208333333333335 1.2083333333333333 1.2083333333333333 0 0 1 0.8125000000000001 -0.7708333333333334A7.541666666666668 7.541666666666668 0 0 0 47.91666666666667 1.4583333333333333a1.1458333333333335 1.1458333333333335 0 0 0 -0.20833333333333337 -1 1.1250000000000002 1.1250000000000002 0 0 0 -0.9791666666666666 -0.45833333333333337H4.666666666666668a1.166666666666667 1.166666666666667 0 0 0 -0.9791666666666666 0.5208333333333334A11.291666666666668 11.291666666666668 0 0 0 2.0833333333333335 4.895833333333334a2.5833333333333335 2.5833333333333335 0 0 0 0.5833333333333335 2.0833333333333335 2.541666666666667 2.541666666666667 0 0 0 1.9375000000000002 0.8541666666666666Zm13.875000000000002 -3.9166666666666665a1.2083333333333333 1.2083333333333333 0 0 1 0.9166666666666667 -0.4375h11.375a1.2083333333333333 1.2083333333333333 0 0 1 0.9166666666666667 0.4375 1.166666666666667 1.166666666666667 0 0 1 0.22916666666666669 0.9791666666666666A6.937500000000001 6.937500000000001 0 0 1 25 10.416666666666668a6.979166666666667 6.979166666666667 0 0 1 -6.750000000000001 -5.520833333333334 1.25 1.25 0 0 1 0.22916666666666669 -0.9791666666666666Z" fill="#000000" stroke-width="1"></path><path d="M41.66666666666667 33.333333333333336H8.333333333333334a8.333333333333334 8.333333333333334 0 0 0 0 16.666666666666668h33.333333333333336a8.333333333333334 8.333333333333334 0 0 0 0 -16.666666666666668ZM8.333333333333334 46.875A5.208333333333334 5.208333333333334 0 1 1 13.541666666666668 41.66666666666667 5.208333333333334 5.208333333333334 0 0 1 8.333333333333334 46.875Zm13.541666666666668 -7.291666666666667H18.75a1.0416666666666667 1.0416666666666667 0 0 1 0 -2.0833333333333335h3.125a1.0416666666666667 1.0416666666666667 0 0 1 0 2.0833333333333335Zm9.375 6.25h-3.125a1.0416666666666667 1.0416666666666667 0 0 1 0 -2.0833333333333335H31.250000000000004a1.0416666666666667 1.0416666666666667 0 0 1 0 2.0833333333333335Zm8.333333333333334 -6.25h-3.125a1.0416666666666667 1.0416666666666667 0 0 1 0 -2.0833333333333335H39.583333333333336a1.0416666666666667 1.0416666666666667 0 0 1 0 2.0833333333333335Z" fill="#000000" stroke-width="1"></path></g></svg>