<svg xmlns="http://www.w3.org/2000/svg" viewBox="0 0 40 40" id="Power-Tools-Wood-Cutter-1--Streamline-Ultimate.svg" height="40" width="40"><desc>Power Tools Wood Cutter 1 Streamline Icon: https://streamlinehq.com</desc><g><path d="M3.6833333333333336 6.266666666666667h1.9333333333333333a0.9333333333333335 0.9333333333333335 0 0 1 0.9000000000000001 0.6666666666666667 5.333333333333334 5.333333333333334 0 0 0 0.9000000000000001 1.8000000000000003 0.21666666666666667 0.21666666666666667 0 0 1 0 0.2 5.95 5.95 0 0 0 0.48333333333333334 7.116666666666666 2.066666666666667 2.066666666666667 0 0 0 1.5 0.8500000000000001 2.0166666666666666 2.0166666666666666 0 0 0 1.6666666666666667 -0.6l1.4666666666666668 -1.5166666666666668a0.9333333333333335 0.9333333333333335 0 0 1 1.0666666666666667 -0.18333333333333335 19.166666666666668 19.166666666666668 0 0 0 2.0166666666666666 0.7666666666666667 0.9666666666666667 0.9666666666666667 0 0 1 0.6166666666666667 0.65c1.0666666666666667 4.066666666666666 5.933333333333334 4.45 6.1000000000000005 4.45a2 2 0 0 0 1.3166666666666669 -0.48333333333333334 2.033333333333333 2.033333333333333 0 0 0 0.7166666666666667 -1.55V16.5a0.9333333333333335 0.9333333333333335 0 0 1 0.6666666666666667 -0.9000000000000001 5 5 0 0 0 1.7666666666666668 -0.8833333333333334 0.25 0.25 0 0 1 0.26666666666666666 0 5.983333333333333 5.983333333333333 0 0 0 7.083333333333334 -0.5 2.0166666666666666 2.0166666666666666 0 0 0 0.8500000000000001 -1.5 2 2 0 0 0 -0.6 -1.6666666666666667l-1.5 -1.4666666666666668a0.95 0.95 0 0 1 -0.2 -1.0666666666666667 16.083333333333336 16.083333333333336 0 0 0 0.7666666666666667 -2.0166666666666666 0.9666666666666667 0.9666666666666667 0 0 1 0.65 -0.6166666666666667A6.033333333333334 6.033333333333334 0 0 0 38.333333333333336 1.1666666666666667a0.9166666666666667 0.9166666666666667 0 0 0 -0.16666666666666669 -0.8 0.9000000000000001 0.9000000000000001 0 0 0 -0.7833333333333333 -0.3666666666666667H3.733333333333334a0.9333333333333335 0.9333333333333335 0 0 0 -0.7833333333333333 0.4166666666666667A9.033333333333333 9.033333333333333 0 0 0 1.6666666666666667 3.916666666666667a2.066666666666667 2.066666666666667 0 0 0 0.46666666666666673 1.6666666666666667 2.033333333333333 2.033333333333333 0 0 0 1.55 0.6833333333333333Zm11.100000000000001 -3.1333333333333333a0.9666666666666667 0.9666666666666667 0 0 1 0.7333333333333334 -0.35h9.1a0.9666666666666667 0.9666666666666667 0 0 1 0.7333333333333334 0.35 0.9333333333333335 0.9333333333333335 0 0 1 0.18333333333333335 0.7833333333333333A5.550000000000001 5.550000000000001 0 0 1 20 8.333333333333334a5.583333333333334 5.583333333333334 0 0 1 -5.4 -4.416666666666667 1 1 0 0 1 0.18333333333333335 -0.7833333333333333Z" fill="#000000" stroke-width="1"></path><path d="M33.333333333333336 26.666666666666668H6.666666666666667a6.666666666666667 6.666666666666667 0 0 0 0 13.333333333333334h26.666666666666668a6.666666666666667 6.666666666666667 0 0 0 0 -13.333333333333334ZM6.666666666666667 37.5A4.166666666666667 4.166666666666667 0 1 1 10.833333333333334 33.333333333333336 4.166666666666667 4.166666666666667 0 0 1 6.666666666666667 37.5Zm10.833333333333334 -5.833333333333334H15a0.8333333333333334 0.8333333333333334 0 0 1 0 -1.6666666666666667h2.5a0.8333333333333334 0.8333333333333334 0 0 1 0 1.6666666666666667Zm7.5 5h-2.5a0.8333333333333334 0.8333333333333334 0 0 1 0 -1.6666666666666667H25a0.8333333333333334 0.8333333333333334 0 0 1 0 1.6666666666666667Zm6.666666666666667 -5h-2.5a0.8333333333333334 0.8333333333333334 0 0 1 0 -1.6666666666666667H31.666666666666668a0.8333333333333334 0.8333333333333334 0 0 1 0 1.6666666666666667Z" fill="#000000" stroke-width="1"></path></g></svg>