<svg xmlns="http://www.w3.org/2000/svg" shape-rendering="geometricPrecision" text-rendering="geometricPrecision" image-rendering="optimizeQuality" fill-rule="evenodd" clip-rule="evenodd" viewBox="0 0 423 512.218"><path fill="#3C4D7A" fill-rule="nonzero" d="M51.825 0h332.632C405.588 0 423 17.408 423 38.54v435.142c0 21.215-17.333 38.536-38.543 38.536H51.825c-21.174 0-38.54-17.362-38.54-38.536V38.54C13.285 17.344 30.655 0 51.825 0z"/><path fill="#fff" d="M51.826 19.887h332.632c10.261 0 18.653 8.414 18.653 18.653v435.141c0 10.239-8.409 18.649-18.653 18.649H51.826c-10.243 0-18.653-8.392-18.653-18.649V38.54c0-10.257 8.392-18.653 18.653-18.653z"/><path fill="#88BCF4" fill-rule="nonzero" d="M145.635 148.585c-5.107 0-9.249-4.453-9.249-9.944 0-5.49 4.142-9.944 9.249-9.944h186.557c5.107 0 9.249 4.454 9.249 9.944 0 5.491-4.142 9.944-9.249 9.944H145.635zm0 234.94c-5.107 0-9.249-4.454-9.249-9.944 0-5.491 4.142-9.944 9.249-9.944h186.557c5.107 0 9.249 4.453 9.249 9.944 0 5.49-4.142 9.944-9.249 9.944H145.635zm0-78.312c-5.107 0-9.249-4.454-9.249-9.944 0-5.491 4.142-9.944 9.249-9.944h186.557c5.107 0 9.249 4.453 9.249 9.944 0 5.49-4.142 9.944-9.249 9.944H145.635zm0-78.308c-5.107 0-9.249-4.454-9.249-9.944 0-5.491 4.142-9.944 9.249-9.944h186.557c5.107 0 9.249 4.453 9.249 9.944 0 5.49-4.142 9.944-9.249 9.944H145.635z"/><path fill="#3C4D7A" d="M61.506 384.848c11.338 0 20.523 9.184 20.523 20.522 0 11.339-9.185 20.524-20.523 20.524-7.727 0-14.454-4.266-17.957-10.576H9.948c-5.491 0-9.948-4.457-9.948-9.948 0-5.49 4.457-9.947 9.948-9.947h33.601c3.503-6.31 10.23-10.575 17.957-10.575zm0-298.535c11.338 0 20.523 9.185 20.523 20.523s-9.185 20.524-20.523 20.524c-7.723 0-14.45-4.262-17.953-10.568H9.948c-5.491 0-9.948-4.458-9.948-9.948 0-5.491 4.457-9.948 9.948-9.948h33.597c3.499-6.314 10.23-10.583 17.961-10.583zM9.948 216.299c-5.491 0-9.948-4.457-9.948-9.947 0-5.491 4.457-9.948 9.948-9.948h33.601c3.503-6.306 10.23-10.572 17.957-10.572 11.338 0 20.523 9.181 20.523 20.523 0 11.338-9.185 20.519-20.523 20.519-7.731 0-14.458-4.269-17.957-10.575H9.948zm51.558 69.041c11.338 0 20.523 9.185 20.523 20.523s-9.185 20.523-20.523 20.523c-7.727 0-14.454-4.266-17.957-10.575H9.948c-5.491 0-9.948-4.457-9.948-9.948 0-5.491 4.457-9.948 9.948-9.948h33.601c3.503-6.31 10.23-10.575 17.957-10.575z"/></svg>